#!OML:ASF F:\VICON\USERDATA\INSTALL\rory3\rory3.ASF
:FULLY-SPECIFIED
:DEGREES
161
root -0.0988608 17.9639 -0.542532 3.29943 -10.4712 1.92405
lowerback -0.888559 -1.86002 -4.49938
upperback -1.10979 -2.45733 2.70528
thorax -0.336642 -1.19839 5.30233
lowerneck -28.3605 0.0143911 -8.43814
upperneck 6.38707 2.21747 5.25594
head 6.20075 1.31583 3.35867
rclavicle -1.20762e-014 1.43125e-014
rhumerus -31.9812 -1.27898 -79.8859
rradius 30.2792
rwrist 20.1655
rhand -18.0789 8.29455
rfingers 7.12502
rthumb 8.19416 -21.5266
lclavicle -1.20762e-014 1.43125e-014
lhumerus 46.5556 -0.225457 49.3927
lradius 103.165
lwrist -11.305
lhand -44.3036 23.2441
lfingers 7.12502
lthumb -17.1134 52.5104
rfemur -8.67809 9.21946 14.3047
rtibia 25.9791
rfoot -17.5548 -3.50055
rtoes 4.44607
lfemur 1.27358 -2.22546 -22.58
ltibia 10.4327
lfoot -10.3064 6.5789
ltoes -12.8155
162
root -0.0980103 17.9639 -0.535579 3.30048 -10.4276 1.94036
lowerback -0.917845 -1.87302 -4.48387
upperback -1.13322 -2.47375 2.71495
thorax -0.342534 -1.20601 5.30282
lowerneck -28.4556 -0.0475289 -8.58912
upperneck 6.21985 2.1673 5.47984
head 6.15907 1.31222 3.45036
rclavicle -3.47625e-014 2.38542e-015
rhumerus -32.0423 -1.17935 -79.8713
rradius 30.3476
rwrist 20.0912
rhand -18.0341 7.96265
rfingers 7.12502
rthumb 8.2374 -21.8568
lclavicle -3.47625e-014 2.38542e-015
lhumerus 46.8458 0.0783341 49.3457
lradius 103.174
lwrist -11.5283
lhand -44.1542 23.1333
lfingers 7.12502
lthumb -16.9697 52.412
rfemur -8.63066 9.16024 14.2834
rtibia 25.9639
rfoot -17.5225 -3.43016
rtoes 4.63387
lfemur 1.29692 -2.18372 -22.6025
ltibia 10.4388
lfoot -10.3375 6.51716
ltoes -13.0264
163
root -0.0966859 17.9644 -0.530993 3.29691 -10.3818 1.94719
lowerback -0.867082 -1.90245 -4.47483
upperback -1.18544 -2.51515 2.75676
thorax -0.418221 -1.22345 5.34378
lowerneck -28.4474 -0.106356 -8.83367
upperneck 5.94328 2.1417 5.74615
head 6.06384 1.32257 3.57058
rclavicle -7.96381e-015 1.19271e-014
rhumerus -32.1421 -0.992154 -79.8373
rradius 30.4173
rwrist 20.0026
rhand -18.0696 7.76651
rfingers 7.12502
rthumb 8.20311 -22.0542
lclavicle -7.96381e-015 1.19271e-014
lhumerus 47.0757 0.366179 49.2765
lradius 102.85
lwrist -12.251
lhand -44.8152 23.0275
lfingers 7.12502
lthumb -17.6058 52.2504
rfemur -8.59637 9.12041 14.2723
rtibia 25.958
rfoot -17.5145 -3.41663
rtoes 4.84165
lfemur 1.33251 -2.16638 -22.6116
ltibia 10.4634
lfoot -10.3589 6.43974
ltoes -13.0583
164
root -0.0946478 17.963 -0.52565 3.29448 -10.3819 1.95867
lowerback -0.868 -1.91693 -4.44891
upperback -1.19242 -2.53455 2.77888
thorax -0.422552 -1.23304 5.35199
lowerneck -28.4269 -0.160259 -9.03024
upperneck 5.48212 2.11116 5.98741
head 5.90763 1.33195 3.67086
rclavicle 6.13748e-014 0
rhumerus -32.1799 -0.830577 -79.8415
rradius 30.5012
rwrist 19.8598
rhand -18.0353 7.76784
rfingers 7.12502
rthumb 8.23628 -22.0516
lclavicle 6.13748e-014 0
lhumerus 47.3332 0.66545 49.1673
lradius 102.449
lwrist -13.9257
lhand -45.2398 23.6371
lfingers 7.12502
lthumb -18.0144 52.8228
rfemur -8.57254 9.08294 14.2461
rtibia 25.9506
rfoot -17.5285 -3.37721
rtoes 4.98372
lfemur 1.34643 -2.18112 -22.6328
ltibia 10.5202
lfoot -10.4251 6.4273
ltoes -13.0537
165
root -0.0935393 17.9615 -0.519054 3.28997 -10.4337 1.98458
lowerback -0.914925 -1.9076 -4.46059
upperback -1.1938 -2.52035 2.78974
thorax -0.398478 -1.22649 5.3685
lowerneck -28.3771 -0.198115 -9.10766
upperneck 4.97078 2.07315 6.12283
head 5.73411 1.33096 3.71468
rclavicle -6.76862e-014 1.90833e-014
rhumerus -32.2142 -0.753305 -79.8303
rradius 30.5524
rwrist 19.82
rhand -18.024 7.88871
rfingers 7.12502
rthumb 8.2472 -21.9303
lclavicle -6.76862e-014 1.90833e-014
lhumerus 47.6397 0.999116 49.1883
lradius 102.469
lwrist -14.3964
lhand -44.8439 23.5572
lfingers 7.12502
lthumb -17.6334 52.7776
rfemur -8.56699 9.0969 14.2055
rtibia 25.954
rfoot -17.5537 -3.33213
rtoes 4.65023
lfemur 1.33727 -2.05207 -22.6671
ltibia 10.5769
lfoot -10.4635 6.36903
ltoes -13.1652
166
root -0.0937754 17.9611 -0.512771 3.27173 -10.4988 1.96332
lowerback -0.943636 -1.88948 -4.43047
upperback -1.19247 -2.49522 2.79819
thorax -0.385026 -1.21448 5.35953
lowerneck -28.1171 -0.247155 -9.3509
upperneck 4.27537 2.03633 6.48296
head 5.46966 1.34691 3.85399
rclavicle -1.59649e-014 2.22639e-014
rhumerus -32.2453 -0.728791 -79.8361
rradius 30.5545
rwrist 19.8145
rhand -18.0489 8.13806
rfingers 7.12502
rthumb 8.22314 -21.6819
lclavicle -1.59649e-014 2.22639e-014
lhumerus 47.9502 1.27861 49.1557
lradius 102.454
lwrist -14.6823
lhand -44.8019 23.5331
lfingers 7.12502
lthumb -17.593 52.7571
rfemur -8.55161 9.14396 14.2325
rtibia 25.9711
rfoot -17.5756 -3.3653
rtoes 4.10908
lfemur 1.37002 -1.98199 -22.6456
ltibia 10.6134
lfoot -10.493 6.37481
ltoes -13.1096
167
root -0.0957643 17.9603 -0.510058 3.24419 -10.5207 1.95557
lowerback -0.935741 -1.88633 -4.4335
upperback -1.18364 -2.49126 2.80107
thorax -0.380599 -1.21279 5.36442
lowerneck -28.0842 -0.256099 -9.46704
upperneck 3.85918 2.03934 6.72871
head 5.32741 1.37264 3.94774
rclavicle -2.16178e-015 -1.03368e-014
rhumerus -32.19 -0.872165 -79.8224
rradius 30.4971
rwrist 19.9127
rhand -17.9491 8.27042
rfingers 7.12502
rthumb 8.31945 -21.5458
lclavicle -2.16178e-015 -1.03368e-014
lhumerus 48.33 1.53636 49.0169
lradius 102.414
lwrist -14.4779
lhand -45.1088 23.5105
lfingers 7.12502
lthumb -17.8884 52.7078
rfemur -8.5242 9.24658 14.2607
rtibia 25.9923
rfoot -17.6426 -3.42859
rtoes 4.07646
lfemur 1.40235 -1.91478 -22.6246
ltibia 10.6214
lfoot -10.5199 6.36974
ltoes -13.1365
